<svg t="1744019296581" class="icon" viewBox="0 0 1024 1024" version="1.1" xmlns="http://www.w3.org/2000/svg" p-id="3410" width="200" height="200"><path d="M896 870.4l-128-128c55.467-68.267 89.6-149.333 89.6-238.933 0-98.134-38.4-192-110.933-264.534-149.334-149.333-384-149.333-533.334-4.266-145.066 145.066-145.066 384 0 529.066 72.534 72.534 166.4 110.934 264.534 110.934 89.6 0 174.933-29.867 238.933-89.6l128 128c4.267 4.266 12.8 8.533 21.333 8.533s17.067-4.267 21.334-8.533c17.066-8.534 17.066-29.867 8.533-42.667zM260.267 721.067c-119.467-123.734-119.467-320 0-439.467 59.733-59.733 140.8-89.6 217.6-89.6 81.066 0 157.866 29.867 217.6 89.6 59.733 59.733 89.6 136.533 89.6 217.6 0 81.067-34.134 162.133-89.6 217.6-55.467 59.733-132.267 93.867-217.6 93.867-81.067 0-157.867-34.134-217.6-89.6z" p-id="3411"></path></svg>